<?xml version="1.0" encoding="iso-8859-1"?>
<!-- Uploaded to: SVG Repo, www.svgrepo.com, Generator: SVG Repo Mixer Tools -->
<svg height="800px" width="800px" version="1.1" id="Capa_1" xmlns="http://www.w3.org/2000/svg" xmlns:xlink="http://www.w3.org/1999/xlink"
	 viewBox="0 0 351.049 351.049" xml:space="preserve">
<g>
	<g>
		<g>
			<path style="fill:#010002;" d="M204.503,133.455h63.297l-22.179-22.167l3.073-3.067l27.418,27.406l-27.418,27.412l-3.073-3.085
				l22.179-22.155h-63.297V133.455z M105.071,108.221l3.073,3.067l-22.167,22.167h63.291v4.35H85.977l22.167,22.155l-3.073,3.085
				l-27.412-27.412L105.071,108.221z"/>
		</g>
		<g>
			<path style="fill:#010002;" d="M200.517,273.133c-1.474-6.51-7.286-11.415-14.249-11.415h-8.073v-30.658h126.36V60.104H46.476
				v170.957h125.34v30.658h-8.085c-6.951,0-12.775,4.905-14.237,11.415H0v6.396h149.494c1.462,6.51,7.286,11.415,14.237,11.415
				h22.543c6.963,0,12.775-4.905,14.249-11.415h150.526v-6.396C351.049,273.133,200.517,273.133,200.517,273.133z M61.781,200.296
				V73.428h228.406v126.874H61.781V200.296z M186.274,284.548h-22.543c-4.535,0-8.228-3.682-8.228-8.216s3.693-8.216,8.228-8.216
				h22.543c4.547,0,8.228,3.682,8.228,8.216S190.815,284.548,186.274,284.548z"/>
		</g>
	</g>
</g>
</svg>
